<mxfile host="" modified="2020-06-04T17:26:07.496Z" agent="5.0 (X11; Linux x86_64) AppleWebKit/537.36 (KHTML, like Gecko) Code/1.45.1 Chrome/78.0.3904.130 Electron/7.2.4 Safari/537.36" etag="LivdcDt81f2p8XW5_04_" version="13.1.3">
    <diagram id="6hGFLwfOUW9BJ-s0fimq" name="Page-1">
        <mxGraphModel dx="2187" dy="758" grid="1" gridSize="10" guides="1" tooltips="1" connect="1" arrows="1" fold="1" page="1" pageScale="1" pageWidth="827" pageHeight="1169" math="0" shadow="0">
            <root>
                <mxCell id="0"/>
                <mxCell id="1" parent="0"/>
                <mxCell id="2" value="" style="ellipse;html=1;shape=startState;fillColor=#000000;strokeColor=#ff0000;" parent="1" vertex="1">
                    <mxGeometry x="50" y="150" width="30" height="30" as="geometry"/>
                </mxCell>
                <mxCell id="3" value="N da Conta Informada" style="edgeStyle=orthogonalEdgeStyle;html=1;verticalAlign=bottom;endArrow=open;endSize=8;strokeColor=#ff0000;" parent="1" source="2" target="4" edge="1">
                    <mxGeometry relative="1" as="geometry">
                        <mxPoint x="65" y="240" as="targetPoint"/>
                    </mxGeometry>
                </mxCell>
                <mxCell id="6" value="Solicita Senha" style="edgeStyle=orthogonalEdgeStyle;html=1;verticalAlign=bottom;endArrow=open;endSize=8;strokeColor=#ff0000;entryX=0.5;entryY=0.533;entryDx=0;entryDy=0;entryPerimeter=0;" parent="1" source="4" target="8" edge="1">
                    <mxGeometry relative="1" as="geometry">
                        <mxPoint x="65" y="380" as="targetPoint"/>
                    </mxGeometry>
                </mxCell>
                <mxCell id="4" value="Consultando Conta" style="swimlane;html=1;fontStyle=1;align=center;verticalAlign=middle;childLayout=stackLayout;horizontal=1;startSize=30;horizontalStack=0;resizeParent=0;resizeLast=1;container=0;fontColor=#000000;collapsible=0;rounded=1;arcSize=30;strokeColor=#ff0000;fillColor=#ffffc0;swimlaneFillColor=#ffffc0;dropTarget=0;" parent="1" vertex="1">
                    <mxGeometry x="-15" y="260" width="160" height="60" as="geometry"/>
                </mxCell>
                <mxCell id="5" value="+do / consultarConta()" style="text;html=1;strokeColor=none;fillColor=none;align=center;verticalAlign=middle;spacingLeft=4;spacingRight=4;whiteSpace=wrap;overflow=hidden;rotatable=0;fontColor=#000000;" parent="4" vertex="1">
                    <mxGeometry y="30" width="160" height="30" as="geometry"/>
                </mxCell>
                <mxCell id="7" style="edgeStyle=orthogonalEdgeStyle;rounded=0;orthogonalLoop=1;jettySize=auto;html=1;exitX=0.75;exitY=0;exitDx=0;exitDy=0;entryX=0.963;entryY=-0.167;entryDx=0;entryDy=0;entryPerimeter=0;" parent="4" source="5" target="5" edge="1">
                    <mxGeometry relative="1" as="geometry"/>
                </mxCell>
                <mxCell id="8" value="Validando Senha" style="swimlane;html=1;fontStyle=1;align=center;verticalAlign=middle;childLayout=stackLayout;horizontal=1;startSize=30;horizontalStack=0;resizeParent=0;resizeLast=1;container=0;fontColor=#000000;collapsible=0;rounded=1;arcSize=30;strokeColor=#ff0000;fillColor=#ffffc0;swimlaneFillColor=#ffffc0;dropTarget=0;" parent="1" vertex="1">
                    <mxGeometry x="-15" y="400" width="160" height="60" as="geometry"/>
                </mxCell>
                <mxCell id="9" value="+do/ validarSenha()" style="text;html=1;strokeColor=none;fillColor=none;align=center;verticalAlign=middle;spacingLeft=4;spacingRight=4;whiteSpace=wrap;overflow=hidden;rotatable=0;fontColor=#000000;" parent="8" vertex="1">
                    <mxGeometry y="30" width="160" height="30" as="geometry"/>
                </mxCell>
                <mxCell id="10" value="Emitir Saldo" style="edgeStyle=orthogonalEdgeStyle;html=1;verticalAlign=bottom;endArrow=open;endSize=8;strokeColor=#ff0000;" parent="1" source="8" target="11" edge="1">
                    <mxGeometry relative="1" as="geometry">
                        <mxPoint x="65" y="520" as="targetPoint"/>
                    </mxGeometry>
                </mxCell>
                <mxCell id="11" value="Consultando Saldo" style="swimlane;html=1;fontStyle=1;align=center;verticalAlign=middle;childLayout=stackLayout;horizontal=1;startSize=30;horizontalStack=0;resizeParent=0;resizeLast=1;container=0;fontColor=#000000;collapsible=0;rounded=1;arcSize=30;strokeColor=#ff0000;fillColor=#ffffc0;swimlaneFillColor=#ffffc0;dropTarget=0;" parent="1" vertex="1">
                    <mxGeometry x="-15" y="540" width="160" height="60" as="geometry"/>
                </mxCell>
                <mxCell id="12" value="+do/ consultandoSalto()" style="text;html=1;strokeColor=none;fillColor=none;align=center;verticalAlign=middle;spacingLeft=4;spacingRight=4;whiteSpace=wrap;overflow=hidden;rotatable=0;fontColor=#000000;" parent="11" vertex="1">
                    <mxGeometry y="30" width="160" height="30" as="geometry"/>
                </mxCell>
                <mxCell id="13" value="Saldo" style="edgeStyle=orthogonalEdgeStyle;rounded=0;orthogonalLoop=1;jettySize=auto;html=1;" parent="1" source="12" edge="1">
                    <mxGeometry relative="1" as="geometry">
                        <mxPoint x="65" y="670" as="targetPoint"/>
                    </mxGeometry>
                </mxCell>
                <mxCell id="16" value="" style="ellipse;html=1;shape=endState;fillColor=#000000;strokeColor=#ff0000;" parent="1" vertex="1">
                    <mxGeometry x="50" y="670" width="30" height="30" as="geometry"/>
                </mxCell>
                <mxCell id="17" value="ACT - EMITIR EXTRATO" style="shape=umlFrame;whiteSpace=wrap;html=1;width=175;height=30;" vertex="1" parent="1">
                    <mxGeometry x="-350" y="130" width="945" height="570" as="geometry"/>
                </mxCell>
            </root>
        </mxGraphModel>
    </diagram>
</mxfile>